<svg width="200" height="75" viewBox="0 0 200 75" fill="none" xmlns="http://www.w3.org/2000/svg">
<g clip-path="url(#clip0_76_849)">
<path d="M177.043 74.5524C173.986 74.5524 171.216 73.7727 168.735 72.2135C166.272 70.6374 164.315 68.3248 162.865 65.2758C161.432 62.2099 160.716 58.4508 160.716 53.9991C160.716 49.4259 161.458 45.6236 162.944 42.5921C164.428 39.5431 166.403 37.2653 168.866 35.7582C171.347 34.2338 174.064 33.4716 177.017 33.4716C179.271 33.4716 181.149 33.8527 182.652 34.6149C184.172 35.3598 185.395 36.2952 186.321 37.4211C187.264 38.5297 187.98 39.621 188.47 40.6952H188.81V20.6875H199.949V73.9026H188.941V67.5104H188.47C187.945 68.6193 187.203 69.7191 186.242 70.8104C185.299 71.8846 184.067 72.7765 182.547 73.487C181.044 74.1971 179.21 74.5524 177.043 74.5524ZM180.581 65.7437C182.381 65.7437 183.901 65.2586 185.141 64.2887C186.399 63.3013 187.36 61.9238 188.024 60.1571C188.706 58.39 189.046 56.32 189.046 53.9471C189.046 51.5738 188.714 49.5122 188.051 47.7627C187.386 46.0132 186.425 44.6621 185.168 43.7094C183.91 42.7564 182.381 42.28 180.581 42.28C178.747 42.28 177.2 42.7739 175.942 43.7614C174.685 44.7485 173.732 46.1171 173.086 47.8666C172.439 49.6161 172.116 51.643 172.116 53.9471C172.116 56.2681 172.439 58.3209 173.086 60.1052C173.75 61.8719 174.702 63.2577 175.942 64.2627C177.2 65.2498 178.747 65.7437 180.581 65.7437Z" fill="white"/>
<path d="M130.786 50.829V73.9027H119.621V33.9914H130.262V41.0329H130.734C131.624 38.7119 133.118 36.8757 135.215 35.5244C137.311 34.1559 139.854 33.4717 142.841 33.4717C145.637 33.4717 148.074 34.078 150.153 35.2906C152.232 36.5031 153.849 38.2352 155.002 40.4874C156.155 42.7221 156.731 45.3895 156.731 48.4905V73.9027H145.567V50.4654C145.584 48.0226 144.955 46.1172 143.68 44.7489C142.404 43.363 140.649 42.6701 138.412 42.6701C136.91 42.6701 135.582 42.9906 134.429 43.6316C133.293 44.2722 132.402 45.2077 131.756 46.4377C131.127 47.6501 130.803 49.1139 130.786 50.829Z" fill="white"/>
<path d="M97.1804 74.6823C93.0395 74.6823 89.4753 73.8507 86.4875 72.1879C83.5173 70.5076 81.2284 68.1343 79.621 65.068C78.0136 61.9846 77.21 58.3382 77.21 54.129C77.21 50.0234 78.0136 46.4205 79.621 43.3195C81.2284 40.2189 83.4911 37.8024 86.4089 36.0701C89.3443 34.3378 92.7863 33.4717 96.7347 33.4717C99.3904 33.4717 101.863 33.8961 104.152 34.7449C106.458 35.5764 108.467 36.8322 110.179 38.5126C111.909 40.1929 113.254 42.3061 114.215 44.8528C115.176 47.3816 115.657 50.3439 115.657 53.739V56.7793H81.6653V49.9195H105.148C105.148 48.3258 104.798 46.914 104.099 45.684C103.4 44.4544 102.431 43.4929 101.19 42.8C99.9672 42.0899 98.5432 41.7346 96.9181 41.7346C95.2236 41.7346 93.721 42.1243 92.4107 42.9039C91.1177 43.666 90.1044 44.6966 89.3705 45.9961C88.6365 47.2777 88.2609 48.7071 88.2435 50.2832V56.8052C88.2435 58.7801 88.6103 60.4865 89.3443 61.9243C90.0956 63.3617 91.1524 64.4706 92.5155 65.2499C93.8782 66.0295 95.4945 66.4191 97.3638 66.4191C98.6044 66.4191 99.7398 66.2461 100.771 65.8996C101.801 65.5532 102.684 65.0337 103.418 64.3407C104.152 63.6478 104.711 62.799 105.095 61.794L115.421 62.4698C114.897 64.9294 113.822 67.0777 112.197 68.9139C110.59 70.7326 108.511 72.1532 105.96 73.175C103.427 74.18 100.5 74.6823 97.1804 74.6823Z" fill="white"/>
<path d="M62.0483 73.9025V33.9912H73.2125V73.9025H62.0483Z" fill="white"/>
<path d="M56.4258 20.6875V73.9026H45.2612V20.6875H56.4258Z" fill="white"/>
<path d="M0 73.9026V20.6875H21.4903C25.4389 20.6875 28.7323 21.2678 31.3706 22.4284C34.0088 23.5891 35.9918 25.2 37.3196 27.2615C38.6476 29.3055 39.3114 31.6614 39.3114 34.3291C39.3114 36.4078 38.8923 38.2352 38.0535 39.8116C37.2148 41.3709 36.0617 42.6525 34.5941 43.6575C33.144 44.6446 31.4841 45.3463 29.6147 45.7619V46.2817C31.6589 46.3685 33.572 46.9399 35.3541 47.9965C37.1539 49.0535 38.6125 50.5344 39.7306 52.4398C40.8491 54.328 41.4081 56.5798 41.4081 59.1957C41.4081 62.0193 40.7004 64.5397 39.2852 66.7571C37.8875 68.957 35.8171 70.6981 33.0741 71.9797C30.331 73.2616 26.9502 73.9026 22.9317 73.9026H0ZM11.3479 64.7043H20.5992C23.7616 64.7043 26.0679 64.1065 27.518 62.9113C28.9682 61.6988 29.6933 60.088 29.6933 58.0783C29.6933 56.6061 29.3351 55.3066 28.6187 54.1809C27.9024 53.0548 26.8803 52.1713 25.5525 51.5303C24.2421 50.8893 22.6783 50.5692 20.8613 50.5692H11.3479V64.7043ZM11.3479 42.9558H19.7606C21.3156 42.9558 22.6958 42.6872 23.9014 42.1502C25.1244 41.5959 26.0854 40.8163 26.7842 39.8116C27.5006 38.807 27.8587 37.603 27.8587 36.1999C27.8587 34.2771 27.1686 32.7267 25.7883 31.5488C24.4255 30.3708 22.4862 29.7819 19.9702 29.7819H11.3479V42.9558Z" fill="white"/>
<path d="M62.1248 32.3405L89.1229 16.1702L62.1248 0L72.5849 15.8277C72.6019 15.8532 72.6166 15.8795 72.6296 15.9071C72.6425 15.9346 72.6535 15.9629 72.6624 15.992C72.6709 16.0212 72.6775 16.0507 72.682 16.0809C72.6864 16.1109 72.689 16.1411 72.689 16.1715C72.689 16.2019 72.6864 16.2321 72.682 16.2622C72.6775 16.2923 72.6709 16.3218 72.6624 16.351C72.6535 16.3801 72.6425 16.4084 72.6296 16.4359C72.6166 16.4635 72.6019 16.4899 72.5849 16.5153L62.1248 32.3405Z" fill="white"/>
</g>
<defs>
<clipPath id="clip0_76_849">
<rect width="200" height="75" fill="white"/>
</clipPath>
</defs>
</svg>
