<svg width="180" height="68" viewBox="0 0 180 68" fill="none" xmlns="http://www.w3.org/2000/svg">
<g clip-path="url(#clip0_74_833)">
<path d="M159.339 67.5938C156.587 67.5938 154.095 66.8869 151.862 65.4732C149.645 64.0442 147.884 61.9475 146.578 59.183C145.289 56.4033 144.644 52.995 144.644 48.9588C144.644 44.8125 145.312 41.3651 146.649 38.6165C147.986 35.8521 149.763 33.7869 151.98 32.4204C154.213 31.0383 156.658 30.3473 159.315 30.3473C161.344 30.3473 163.034 30.6928 164.386 31.3838C165.754 32.0592 166.855 32.9073 167.689 33.9282C168.538 34.9332 169.182 35.9227 169.623 36.8966H169.929V18.7563H179.954V67.0047H170.047V61.2091H169.623C169.151 62.2145 168.483 63.2116 167.618 64.2011C166.769 65.175 165.66 65.9837 164.292 66.6279C162.94 67.2717 161.289 67.5938 159.339 67.5938ZM162.523 59.6073C164.143 59.6073 165.511 59.1675 166.627 58.2881C167.759 57.3928 168.624 56.1439 169.222 54.5421C169.835 52.94 170.142 51.0632 170.142 48.9117C170.142 46.7599 169.843 44.8908 169.246 43.3045C168.648 41.7183 167.783 40.4933 166.651 39.6296C165.519 38.7655 164.143 38.3336 162.523 38.3336C160.872 38.3336 159.48 38.7814 158.348 39.6767C157.216 40.5716 156.359 41.8125 155.777 43.3988C155.196 44.985 154.905 46.8226 154.905 48.9117C154.905 51.0161 155.196 52.8773 155.777 54.495C156.375 56.0968 157.232 57.3534 158.348 58.2646C159.48 59.1595 160.872 59.6073 162.523 59.6073Z" fill="black"/>
<path d="M117.707 46.085V67.0051H107.659V30.8188H117.235V37.2032H117.66C118.462 35.0988 119.807 33.434 121.694 32.2088C123.58 30.968 125.868 30.3477 128.557 30.3477C131.073 30.3477 133.267 30.8974 135.138 31.9968C137.009 33.0962 138.464 34.6666 139.502 36.7086C140.539 38.7347 141.058 41.1532 141.058 43.9647V67.0051H131.01V45.7553C131.026 43.5405 130.46 41.8129 129.312 40.5723C128.164 39.3158 126.584 38.6876 124.571 38.6876C123.219 38.6876 122.024 38.9782 120.986 39.5593C119.964 40.1401 119.162 40.9883 118.58 42.1035C118.014 43.2028 117.723 44.5299 117.707 46.085Z" fill="black"/>
<path d="M87.4624 67.712C83.7355 67.712 80.5277 66.958 77.8387 65.4504C75.1656 63.9269 73.1056 61.7751 71.6589 58.995C70.2123 56.1994 69.489 52.8933 69.489 49.077C69.489 45.3546 70.2123 42.0879 71.6589 39.2764C73.1056 36.4651 75.142 34.2742 77.768 32.7035C80.4098 31.133 83.5077 30.3477 87.0612 30.3477C89.4514 30.3477 91.6764 30.7325 93.7365 31.5021C95.8121 32.2559 97.6204 33.3945 99.1614 34.9181C100.718 36.4416 101.929 38.3575 102.794 40.6665C103.659 42.9593 104.091 45.6451 104.091 48.7234V51.4799H73.4988V45.2604H94.6328C94.6328 43.8154 94.3183 42.5354 93.6893 41.4202C93.0603 40.3053 92.1876 39.4336 91.071 38.8053C89.9704 38.1615 88.6888 37.8394 87.2263 37.8394C85.7012 37.8394 84.3489 38.1927 83.1696 38.8995C82.0059 39.5905 81.094 40.5249 80.4334 41.7031C79.7729 42.8651 79.4348 44.1611 79.4192 45.5901V51.5034C79.4192 53.294 79.7493 54.8411 80.4098 56.1447C81.086 57.4479 82.0371 58.4533 83.2639 59.1599C84.4904 59.8668 85.945 60.22 87.6274 60.22C88.744 60.22 89.7659 60.0631 90.6937 59.749C91.6213 59.4349 92.4154 58.9638 93.0759 58.3356C93.7365 57.7073 94.2396 56.9378 94.5857 56.0266L103.879 56.6392C103.407 58.8693 102.44 60.8171 100.978 62.4819C99.531 64.1309 97.6596 65.4189 95.3638 66.3453C93.0839 67.2565 90.45 67.712 87.4624 67.712Z" fill="black"/>
<path d="M55.8435 67.0051V30.8188H65.8913V67.0051H55.8435Z" fill="black"/>
<path d="M50.7833 18.7563V67.0047H40.7351V18.7563H50.7833Z" fill="black"/>
<path d="M0 67.0047V18.7563H19.3412C22.895 18.7563 25.8591 19.2825 28.2335 20.3348C30.6079 21.3871 32.3927 22.8477 33.5876 24.7167C34.7828 26.57 35.3803 28.706 35.3803 31.1247C35.3803 33.0094 35.003 34.6662 34.2482 36.0956C33.4933 37.5093 32.4556 38.6713 31.1347 39.5825C29.8296 40.4774 28.3357 41.1136 26.6532 41.4904V41.9618C28.493 42.0404 30.2148 42.5585 31.8187 43.5165C33.4385 44.4748 34.7513 45.8176 35.7576 47.5451C36.7642 49.257 37.2673 51.2987 37.2673 53.6704C37.2673 56.2305 36.6303 58.5157 35.3567 60.5261C34.0987 62.5207 32.2354 64.0993 29.7667 65.2613C27.2979 66.4236 24.2552 67.0047 20.6385 67.0047H0ZM10.2131 58.6649H18.5393C21.3854 58.6649 23.4611 58.1229 24.7662 57.0392C26.0714 55.9399 26.724 54.4794 26.724 52.6574C26.724 51.3226 26.4016 50.1444 25.7569 49.1237C25.1122 48.1027 24.1923 47.3016 22.9972 46.7205C21.8179 46.1393 20.4105 45.8491 18.7752 45.8491H10.2131V58.6649ZM10.2131 38.9462H17.7845C19.184 38.9462 20.4262 38.7028 21.5112 38.2158C22.612 37.7133 23.4768 37.0064 24.1058 36.0956C24.7505 35.1847 25.0729 34.093 25.0729 32.8209C25.0729 31.0776 24.4517 29.6719 23.2095 28.6039C21.983 27.5359 20.2375 27.0019 17.9732 27.0019H10.2131V38.9462Z" fill="black"/>
<path d="M55.9123 29.3221L80.2106 14.661L55.9123 0L65.3264 14.3505C65.3417 14.3735 65.355 14.3974 65.3666 14.4224C65.3782 14.4474 65.3882 14.4731 65.3961 14.4995C65.4038 14.5259 65.4098 14.5527 65.4137 14.58C65.4177 14.6072 65.42 14.6346 65.42 14.6622C65.42 14.6897 65.4177 14.7171 65.4137 14.7444C65.4098 14.7717 65.4038 14.7985 65.3961 14.8249C65.3882 14.8513 65.3782 14.8769 65.3666 14.9019C65.355 14.9269 65.3417 14.9508 65.3264 14.9739L55.9123 29.3221Z" fill="black"/>
</g>
<defs>
<clipPath id="clip0_74_833">
<rect width="180" height="68" fill="white"/>
</clipPath>
</defs>
</svg>
