<svg width="180" height="68" viewBox="0 47 665 250" fill="none" xmlns="http://www.w3.org/2000/svg">
<g fill="#ffffff">
  <!-- U -->
  <g transform="translate(8.961267, 239.451264)">
    <path d="M 165.21875 -43.671875 L 171.53125 -35.25 L 127.859375 0 C 121.890625 -3.507812 116.710938 -9.117188 112.328125 -16.828125 C 107.941406 -24.546875 105.835938 -34.28125 106.015625 -46.03125 L 106.015625 -52.09375 C 103.210938 -49.8125 99.222656 -46.566406 94.046875 -42.359375 C 88.878906 -38.148438 83.269531 -33.632812 77.21875 -28.8125 C 71.164062 -23.988281 65.421875 -19.382812 59.984375 -15 C 54.546875 -10.613281 50.070312 -7.015625 46.5625 -4.203125 C 43.050781 -1.398438 41.296875 0 41.296875 0 C 35.335938 -3.6875 30.382812 -9.34375 26.4375 -16.96875 C 22.488281 -24.59375 20.601562 -34.28125 20.78125 -46.03125 L 20.78125 -133.125 C 20.601562 -141.1875 18.757812 -146.359375 15.25 -148.640625 C 11.75 -150.921875 6.050781 -149.601562 -1.84375 -144.6875 L -6.3125 -153.109375 L 42.625 -192.84375 C 48.0625 -188.976562 52.269531 -185.03125 55.25 -181 C 58.226562 -176.96875 60.375 -172.144531 61.6875 -166.53125 C 63.007812 -160.914062 63.582031 -153.8125 63.40625 -145.21875 L 63.140625 -45.25 C 68.046875 -45.25 73.347656 -46.738281 79.046875 -49.71875 C 84.753906 -52.695312 90.0625 -55.984375 94.96875 -59.578125 C 99.882812 -63.179688 103.566406 -66.035156 106.015625 -68.140625 L 106.015625 -133.125 C 105.835938 -141.1875 104.039062 -146.359375 100.625 -148.640625 C 97.207031 -150.921875 91.640625 -149.601562 83.921875 -144.6875 L 79.453125 -152.84375 L 127.859375 -192.84375 C 133.117188 -188.976562 137.28125 -184.984375 140.34375 -180.859375 C 143.414062 -176.742188 145.609375 -171.921875 146.921875 -166.390625 C 148.242188 -160.867188 148.816406 -153.8125 148.640625 -145.21875 L 148.90625 -56.5625 C 149.082031 -47.613281 150.351562 -42.128906 152.71875 -40.109375 C 155.082031 -38.097656 159.25 -39.285156 165.21875 -43.671875 Z"/>
  </g>
  <!-- w -->
  <g transform="translate(170.229568, 239.451264)">
    <path d="M 194.9375 -145.75 C 200.550781 -145.75 205.414062 -143.25 209.53125 -138.25 C 213.65625 -133.25 216.726562 -126.625 218.75 -118.375 C 220.769531 -110.132812 221.515625 -101.144531 220.984375 -91.40625 C 220.460938 -81.675781 218.316406 -72.078125 214.546875 -62.609375 C 210.773438 -53.140625 205.203125 -44.722656 197.828125 -37.359375 L 155.75 0 C 151.53125 0 147.578125 -1.972656 143.890625 -5.921875 C 140.210938 -9.867188 136.707031 -15.039062 133.375 -21.4375 C 130.039062 -27.84375 126.796875 -34.816406 123.640625 -42.359375 L 75.5 0 C 70.9375 0 66.679688 -2.28125 62.734375 -6.84375 C 58.796875 -11.40625 55.023438 -17.320312 51.421875 -24.59375 C 47.828125 -31.875 44.363281 -39.679688 41.03125 -48.015625 C 37.707031 -56.347656 34.332031 -64.328125 30.90625 -71.953125 C 27.488281 -79.578125 23.9375 -86.109375 20.25 -91.546875 C 16.570312 -96.984375 12.671875 -100.445312 8.546875 -101.9375 C 4.429688 -103.425781 -0.0820312 -101.984375 -5 -97.609375 L -9.46875 -106.015625 L 32.890625 -145.75 C 37.617188 -145.75 42 -143.507812 46.03125 -139.03125 C 50.070312 -134.5625 53.890625 -128.726562 57.484375 -121.53125 C 61.078125 -114.34375 64.582031 -106.582031 68 -98.25 C 71.425781 -89.925781 74.800781 -81.773438 78.125 -73.796875 C 81.457031 -65.816406 84.878906 -58.800781 88.390625 -52.75 C 91.898438 -46.695312 95.582031 -42.53125 99.4375 -40.25 L 118.125 -55.765625 C 114.96875 -63.304688 111.8125 -70.410156 108.65625 -77.078125 C 105.5 -83.742188 102.207031 -89.359375 98.78125 -93.921875 C 95.363281 -98.484375 91.722656 -101.242188 87.859375 -102.203125 C 84.003906 -103.171875 79.796875 -101.640625 75.234375 -97.609375 L 70.765625 -106.015625 L 113.125 -145.75 C 117.863281 -145.75 122.203125 -143.554688 126.140625 -139.171875 C 130.085938 -134.785156 133.816406 -129.082031 137.328125 -122.0625 C 140.835938 -115.050781 144.210938 -107.421875 147.453125 -99.171875 C 150.703125 -90.929688 153.945312 -82.910156 157.1875 -75.109375 C 160.4375 -67.304688 163.8125 -60.421875 167.3125 -54.453125 C 170.820312 -48.492188 174.503906 -44.375 178.359375 -42.09375 C 180.640625 -47 182.175781 -52.738281 182.96875 -59.3125 C 183.757812 -65.894531 183.800781 -72.472656 183.09375 -79.046875 C 182.394531 -85.628906 180.863281 -91.375 178.5 -96.28125 C 176.132812 -101.195312 172.929688 -104.398438 168.890625 -105.890625 C 164.859375 -107.378906 159.863281 -106.367188 153.90625 -102.859375 L 149.171875 -112.59375 Z"/>
  </g>
  <!-- a -->
  <g transform="translate(390.691031, 239.451264)">
    <path d="M 134.171875 -42.875 L 139.953125 -35.515625 L 96.546875 0 C 93.742188 0 90.984375 -1.488281 88.265625 -4.46875 C 85.546875 -7.445312 83.21875 -11.171875 81.28125 -15.640625 C 79.351562 -20.117188 78.128906 -24.375 77.609375 -28.40625 L 38.671875 0 C 31.484375 -0.175781 25.257812 -2.585938 20 -7.234375 C 14.738281 -11.878906 10.832031 -17.617188 8.28125 -24.453125 C 5.738281 -31.296875 4.90625 -37.789062 5.78125 -43.9375 C 7.882812 -57.613281 14.941406 -68.660156 26.953125 -77.078125 C 38.972656 -85.492188 53.84375 -92.25 71.5625 -97.34375 C 68.75 -101.894531 64.800781 -105.265625 59.71875 -107.453125 C 54.632812 -109.648438 49.066406 -110.835938 43.015625 -111.015625 C 36.960938 -111.191406 30.910156 -110.445312 24.859375 -108.78125 C 18.804688 -107.113281 13.328125 -104.789062 8.421875 -101.8125 L 3.15625 -109.96875 L 52.875 -145.75 C 60.59375 -145.75 68.222656 -145.222656 75.765625 -144.171875 C 83.304688 -143.117188 90.1875 -140.96875 96.40625 -137.71875 C 102.632812 -134.476562 107.632812 -129.65625 111.40625 -123.25 C 115.175781 -116.851562 117.148438 -108.390625 117.328125 -97.859375 L 117.59375 -56.828125 C 117.414062 -49.984375 118.597656 -44.851562 121.140625 -41.4375 C 123.691406 -38.019531 128.035156 -38.5 134.171875 -42.875 Z M 59.1875 -31.3125 L 75.765625 -42.09375 L 75.5 -84.96875 C 67.082031 -81.8125 60.550781 -77.820312 55.90625 -73 C 51.257812 -68.175781 48.410156 -63.046875 47.359375 -57.609375 C 46.304688 -52.171875 46.832031 -47.082031 48.9375 -42.34375 C 51.039062 -37.613281 54.457031 -33.9375 59.1875 -31.3125 Z"/>
  </g>
  <!-- y -->
  <g transform="translate(520.389699, 239.451264)">
    <path d="M 120.484375 -35.78125 C 111.890625 -25.601562 103.03125 -15.382812 93.90625 -5.125 C 84.789062 5.132812 75.890625 14.644531 67.203125 23.40625 C 58.523438 32.175781 50.285156 39.585938 42.484375 45.640625 C 34.679688 51.691406 27.625 55.722656 21.3125 57.734375 C 15 59.753906 9.738281 58.925781 5.53125 55.25 C 0.613281 50.863281 -2.367188 45.46875 -3.421875 39.0625 C -4.472656 32.664062 -3.113281 26.003906 0.65625 19.078125 C 4.425781 12.148438 11.085938 5.570312 20.640625 -0.65625 C 30.203125 -6.882812 43.226562 -11.925781 59.71875 -15.78125 C 56.382812 -21.21875 53.140625 -27.488281 49.984375 -34.59375 C 46.828125 -41.695312 43.710938 -49.019531 40.640625 -56.5625 C 37.578125 -64.101562 34.46875 -71.207031 31.3125 -77.875 C 28.15625 -84.539062 24.863281 -90.0625 21.4375 -94.4375 C 18.019531 -98.820312 14.378906 -101.5 10.515625 -102.46875 C 6.660156 -103.4375 2.453125 -101.898438 -2.109375 -97.859375 L -6.3125 -106.28125 L 35.78125 -145.75 C 40.507812 -145.75 44.847656 -143.597656 48.796875 -139.296875 C 52.742188 -135.003906 56.472656 -129.304688 59.984375 -122.203125 C 63.492188 -115.097656 66.867188 -107.46875 70.109375 -99.3125 C 73.359375 -91.15625 76.601562 -83.175781 79.84375 -75.375 C 83.09375 -67.570312 86.425781 -60.6875 89.84375 -54.71875 C 93.257812 -48.757812 96.898438 -44.640625 100.765625 -42.359375 C 102.867188 -47.265625 104.3125 -53.003906 105.09375 -59.578125 C 105.882812 -66.160156 105.925781 -72.738281 105.21875 -79.3125 C 104.519531 -85.894531 103.03125 -91.640625 100.75 -96.546875 C 98.476562 -101.460938 95.367188 -104.707031 91.421875 -106.28125 C 87.472656 -107.863281 82.601562 -106.898438 76.8125 -103.390625 L 71.5625 -112.59375 L 117.328125 -145.75 C 122.941406 -145.75 127.941406 -143.597656 132.328125 -139.296875 C 136.710938 -135.003906 140.085938 -129.128906 142.453125 -121.671875 C 144.828125 -114.222656 145.789062 -105.757812 145.34375 -96.28125 C 144.90625 -86.8125 142.710938 -76.859375 138.765625 -66.421875 C 134.828125 -55.992188 128.734375 -45.78125 120.484375 -35.78125 Z M 25.78125 26.046875 C 27.363281 27.453125 30.039062 27.273438 33.8125 25.515625 C 37.582031 23.765625 41.570312 21.132812 45.78125 17.625 C 49.988281 14.113281 53.582031 10.382812 56.5625 6.4375 C 59.539062 2.5 61.03125 -0.875 61.03125 -3.6875 C 55.070312 -3.6875 49.59375 -2.585938 44.59375 -0.390625 C 39.59375 1.796875 35.378906 4.554688 31.953125 7.890625 C 28.535156 11.222656 26.253906 14.554688 25.109375 17.890625 C 23.972656 21.222656 24.195312 23.941406 25.78125 26.046875 Z"/>
  </g>
</g>
</svg>
