<svg width="235" height="161" viewBox="0 0 235 161" fill="none" xmlns="http://www.w3.org/2000/svg">
<path d="M0 161V15.5454H87.3019C103.343 15.5454 116.722 17.1316 127.44 20.3039C138.157 23.4763 146.213 27.8797 151.607 33.5142C157.002 39.1013 159.699 45.5407 159.699 52.8324C159.699 58.5142 157.995 63.5094 154.588 67.8181C151.181 72.0795 146.497 75.5833 140.535 78.3295C134.644 81.0284 127.901 82.946 120.306 84.0823V85.5028C128.611 85.7395 136.383 87.302 143.622 90.1903C150.933 93.0786 156.86 97.1268 161.402 102.335C165.945 107.496 168.216 113.651 168.216 120.801C168.216 128.519 165.341 135.408 159.592 141.469C153.914 147.482 145.503 152.241 134.36 155.744C123.216 159.248 109.482 161 93.1575 161H0ZM46.0997 135.858H83.6821C96.529 135.858 105.898 134.224 111.789 130.957C117.68 127.643 120.626 123.24 120.626 117.747C120.626 113.723 119.171 110.171 116.261 107.094C113.351 104.016 109.198 101.601 103.804 99.8494C98.4808 98.0975 92.1284 97.2215 84.7468 97.2215H46.0997V135.858ZM46.0997 76.4119H80.2752C86.5922 76.4119 92.1993 75.678 97.0968 74.2102C102.065 72.695 105.969 70.5644 108.808 67.8181C111.718 65.0719 113.173 61.7812 113.173 57.946C113.173 52.6903 110.37 48.4526 104.762 45.2329C99.2261 42.0132 91.3476 40.4034 81.1269 40.4034H46.0997V76.4119Z" fill="black"/>
<path d="M161 88.3975L234.166 44.1986L161 0L189.347 43.2624C189.393 43.332 189.433 43.404 189.468 43.4794C189.503 43.5547 189.533 43.632 189.557 43.7116C189.58 43.7912 189.599 43.872 189.611 43.9544C189.623 44.0364 189.629 44.119 189.629 44.2021C189.629 44.2852 189.623 44.3678 189.611 44.4499C189.599 44.5322 189.58 44.613 189.557 44.6926C189.533 44.7722 189.503 44.8495 189.468 44.9249C189.433 45.0002 189.393 45.0723 189.347 45.1418L161 88.3975Z" fill="black"/>
</svg>
