<svg width="180" height="180" viewBox="0 0 180 180" fill="none" xmlns="http://www.w3.org/2000/svg">
<rect width="180" height="180" rx="16" fill="white"/>
<path d="M43.6402 143.815C39.8435 149.608 37.9452 152.505 39.053 153.654C40.1608 154.803 43.1252 153.012 49.0541 149.431L141.332 93.6861C143.865 92.1558 145.132 91.3907 145.132 90.2623C145.132 89.1339 143.865 88.3688 141.332 86.8385L49.0516 31.0925C43.1236 27.5115 40.1596 25.7209 39.0518 26.8701C37.944 28.0192 39.8418 30.9156 43.6375 36.7085L77.7803 88.8164C77.8507 88.9238 77.9133 89.0351 77.9674 89.1515C78.0219 89.2678 78.0675 89.3872 78.1042 89.5102C78.141 89.6331 78.1688 89.7579 78.1873 89.8851C78.2059 90.0118 78.2152 90.1394 78.2152 90.2677C78.2152 90.396 78.2059 90.5236 78.1873 90.6504C78.1688 90.7775 78.141 90.9024 78.1042 91.0253C78.0675 91.1482 78.0219 91.2676 77.9674 91.384C77.9133 91.5003 77.8507 91.6116 77.7803 91.7191L43.6402 143.815Z" fill="black"/>
</svg>
