<svg width="32" height="32" viewBox="0 0 32 32" xmlns="http://www.w3.org/2000/svg">
  <!-- White background -->
  <rect width="32" height="32" rx="4" ry="4" fill="#ffffff"/>
  <!-- Black icon: original viewBox "-7 46 184 195", scaled to 16x16 and centered -->
  <svg x="8" y="8" width="16" height="16" viewBox="-7 46 184 195">
    <g fill="#000000" transform="translate(8.961267, 239.451264)">
      <path d="M 165.21875 -43.671875 L 171.53125 -35.25 L 127.859375 0 C 121.890625 -3.507812 116.710938 -9.117188 112.328125 -16.828125 C 107.941406 -24.546875 105.835938 -34.28125 106.015625 -46.03125 L 106.015625 -52.09375 C 103.210938 -49.8125 99.222656 -46.566406 94.046875 -42.359375 C 88.878906 -38.148438 83.269531 -33.632812 77.21875 -28.8125 C 71.164062 -23.988281 65.421875 -19.382812 59.984375 -15 C 54.546875 -10.613281 50.070312 -7.015625 46.5625 -4.203125 C 43.050781 -1.398438 41.296875 0 41.296875 0 C 35.335938 -3.6875 30.382812 -9.34375 26.4375 -16.96875 C 22.488281 -24.59375 20.601562 -34.28125 20.78125 -46.03125 L 20.78125 -133.125 C 20.601562 -141.1875 18.757812 -146.359375 15.25 -148.640625 C 11.75 -150.921875 6.050781 -149.601562 -1.84375 -144.6875 L -6.3125 -153.109375 L 42.625 -192.84375 C 48.0625 -188.976562 52.269531 -185.03125 55.25 -181 C 58.226562 -176.96875 60.375 -172.144531 61.6875 -166.53125 C 63.007812 -160.914062 63.582031 -153.8125 63.40625 -145.21875 L 63.140625 -45.25 C 68.046875 -45.25 73.347656 -46.738281 79.046875 -49.71875 C 84.753906 -52.695312 90.0625 -55.984375 94.96875 -59.578125 C 99.882812 -63.179688 103.566406 -66.035156 106.015625 -68.140625 L 106.015625 -133.125 C 105.835938 -141.1875 104.039062 -146.359375 100.625 -148.640625 C 97.207031 -150.921875 91.640625 -149.601562 83.921875 -144.6875 L 79.453125 -152.84375 L 127.859375 -192.84375 C 133.117188 -188.976562 137.28125 -184.984375 140.34375 -180.859375 C 143.414062 -176.742188 145.609375 -171.921875 146.921875 -166.390625 C 148.242188 -160.867188 148.816406 -153.8125 148.640625 -145.21875 L 148.90625 -56.5625 C 149.082031 -47.613281 150.351562 -42.128906 152.71875 -40.109375 C 155.082031 -38.097656 159.25 -39.285156 165.21875 -43.671875 Z"/>
    </g>
  </svg>
</svg>
